<?xml version="1.0" encoding="UTF-8" standalone="no"?>
<!DOCTYPE svg PUBLIC "-//W3C//DTD SVG 1.1//EN"
 "http://www.w3.org/Graphics/SVG/1.1/DTD/svg11.dtd">
<!-- Generated by graphviz version 2.38.0 (20140413.2041)
 -->
<!-- Title: models_diagram Pages: 1 -->
<svg width="366pt" height="246pt"
 viewBox="0.00 0.00 366.19 246.00" xmlns="http://www.w3.org/2000/svg" xmlns:xlink="http://www.w3.org/1999/xlink">
<g id="graph0" class="graph" transform="scale(1 1) rotate(0) translate(4 242)">
<title>models_diagram</title>
<polygon fill="none" stroke="none" points="-4,4 -4,-242 362.193,-242 362.193,4 -4,4"/>
<!-- _diagram_info -->
<g id="node1" class="node"><title>_diagram_info</title>
<text text-anchor="start" x="8" y="-216.6" font-family="Times,serif" font-size="13.00">Models diagram</text>
<text text-anchor="start" x="8" y="-203.6" font-family="Times,serif" font-size="13.00">Date: Oct 27 2016 &#45; 20:55</text>
<text text-anchor="start" x="8" y="-190.6" font-family="Times,serif" font-size="13.00">Migration version: 20161027233724</text>
<text text-anchor="start" x="8" y="-177.6" font-family="Times,serif" font-size="13.00">Generated by RailRoady 1.5.2</text>
<text text-anchor="start" x="8" y="-164.6" font-family="Times,serif" font-size="13.00">http://railroady.prestonlee.com</text>
</g>
<!-- Category -->
<g id="node2" class="node"><title>Category</title>
<path fill="none" stroke="black" d="M237.182,-151.5C237.182,-151.5 346.193,-151.5 346.193,-151.5 352.193,-151.5 358.193,-157.5 358.193,-163.5 358.193,-163.5 358.193,-225.5 358.193,-225.5 358.193,-231.5 352.193,-237.5 346.193,-237.5 346.193,-237.5 237.182,-237.5 237.182,-237.5 231.182,-237.5 225.182,-231.5 225.182,-225.5 225.182,-225.5 225.182,-163.5 225.182,-163.5 225.182,-157.5 231.182,-151.5 237.182,-151.5"/>
<text text-anchor="middle" x="291.688" y="-222.3" font-family="Times,serif" font-size="14.00">Category</text>
<polyline fill="none" stroke="black" points="225.182,-215.5 358.193,-215.5 "/>
<text text-anchor="start" x="233.182" y="-200.3" font-family="Times,serif" font-size="14.00">id :INTEGER</text>
<text text-anchor="start" x="233.182" y="-186.3" font-family="Times,serif" font-size="14.00">name :varchar</text>
<text text-anchor="start" x="233.182" y="-172.3" font-family="Times,serif" font-size="14.00">created_at :datetime</text>
<text text-anchor="start" x="233.182" y="-158.3" font-family="Times,serif" font-size="14.00">updated_at :datetime</text>
</g>
<!-- Product -->
<g id="node3" class="node"><title>Product</title>
<path fill="none" stroke="black" d="M237.182,-0.5C237.182,-0.5 346.193,-0.5 346.193,-0.5 352.193,-0.5 358.193,-6.5 358.193,-12.5 358.193,-12.5 358.193,-102.5 358.193,-102.5 358.193,-108.5 352.193,-114.5 346.193,-114.5 346.193,-114.5 237.182,-114.5 237.182,-114.5 231.182,-114.5 225.182,-108.5 225.182,-102.5 225.182,-102.5 225.182,-12.5 225.182,-12.5 225.182,-6.5 231.182,-0.5 237.182,-0.5"/>
<text text-anchor="middle" x="291.688" y="-99.3" font-family="Times,serif" font-size="14.00">Product</text>
<polyline fill="none" stroke="black" points="225.182,-92.5 358.193,-92.5 "/>
<text text-anchor="start" x="233.182" y="-77.3" font-family="Times,serif" font-size="14.00">id :INTEGER</text>
<text text-anchor="start" x="233.182" y="-63.3" font-family="Times,serif" font-size="14.00">name :varchar</text>
<text text-anchor="start" x="233.182" y="-49.3" font-family="Times,serif" font-size="14.00">price :integer</text>
<text text-anchor="start" x="233.182" y="-35.3" font-family="Times,serif" font-size="14.00">category_id :integer</text>
<text text-anchor="start" x="233.182" y="-21.3" font-family="Times,serif" font-size="14.00">created_at :datetime</text>
<text text-anchor="start" x="233.182" y="-7.3" font-family="Times,serif" font-size="14.00">updated_at :datetime</text>
</g>
<!-- Category&#45;&gt;Product -->
<g id="edge1" class="edge"><title>Category&#45;&gt;Product</title>
<path fill="none" stroke="#121eaf" d="M291.688,-143.113C291.688,-137.149 291.688,-130.994 291.688,-124.852"/>
<ellipse fill="none" stroke="#121eaf" cx="291.688" cy="-147.156" rx="4" ry="4"/>
<polygon fill="#121eaf" stroke="#121eaf" points="291.688,-124.563 296.188,-114.563 291.688,-119.563 291.688,-114.563 291.688,-114.563 291.688,-114.563 291.688,-119.563 287.188,-114.563 291.688,-124.563 291.688,-124.563"/>
</g>
</g>
</svg>
