<?xml version="1.0" encoding="UTF-8" standalone="no"?>
<!DOCTYPE svg PUBLIC "-//W3C//DTD SVG 1.1//EN"
 "http://www.w3.org/Graphics/SVG/1.1/DTD/svg11.dtd">
<!-- Generated by graphviz version 2.38.0 (20140413.2041)
 -->
<!-- Title: models_diagram Pages: 1 -->
<svg width="429pt" height="81pt"
 viewBox="0.00 0.00 429.31 81.00" xmlns="http://www.w3.org/2000/svg" xmlns:xlink="http://www.w3.org/1999/xlink">
<g id="graph0" class="graph" transform="scale(1 1) rotate(0) translate(4 77)">
<title>models_diagram</title>
<polygon fill="none" stroke="none" points="-4,4 -4,-77 425.305,-77 425.305,4 -4,4"/>
<!-- _diagram_info -->
<g id="node1" class="node"><title>_diagram_info</title>
<text text-anchor="start" x="8" y="-58.6" font-family="Times,serif" font-size="13.00">Models diagram</text>
<text text-anchor="start" x="8" y="-45.6" font-family="Times,serif" font-size="13.00">Date: Oct 27 2016 &#45; 20:19</text>
<text text-anchor="start" x="8" y="-32.6" font-family="Times,serif" font-size="13.00">Migration version: 20161027231555</text>
<text text-anchor="start" x="8" y="-19.6" font-family="Times,serif" font-size="13.00">Generated by RailRoady 1.5.2</text>
<text text-anchor="start" x="8" y="-6.6" font-family="Times,serif" font-size="13.00">http://railroady.prestonlee.com</text>
</g>
<!-- Category -->
<g id="node2" class="node"><title>Category</title>
<ellipse fill="none" stroke="black" cx="267.688" cy="-36.5" rx="42.5456" ry="18"/>
<text text-anchor="middle" x="267.688" y="-32.3" font-family="Times,serif" font-size="14.00">Category</text>
</g>
<!-- Product -->
<g id="node3" class="node"><title>Product</title>
<ellipse fill="none" stroke="black" cx="365.688" cy="-36.5" rx="37.7352" ry="18"/>
<text text-anchor="middle" x="365.688" y="-32.3" font-family="Times,serif" font-size="14.00">Product</text>
</g>
<!-- Product&#45;&gt;Product -->
<g id="edge1" class="edge"><title>Product&#45;&gt;Product</title>
<path fill="none" stroke="#fac3fa" d="M408.771,-42.8081C416.172,-41.9513 421.305,-39.8486 421.305,-36.5 421.305,-33.5002 417.186,-31.5002 411.007,-30.5002"/>
<ellipse fill="none" stroke="#fac3fa" cx="404.714" cy="-43.0305" rx="4" ry="4"/>
<polygon fill="#fac3fa" stroke="#fac3fa" points="410.693,-30.4774 401.047,-25.2623 405.707,-30.1139 400.72,-29.7504 400.72,-29.7504 400.72,-29.7504 405.707,-30.1139 400.393,-34.2385 410.693,-30.4774 410.693,-30.4774"/>
</g>
</g>
</svg>
