<?xml version="1.0" encoding="UTF-8" standalone="no"?>
<!DOCTYPE svg PUBLIC "-//W3C//DTD SVG 1.1//EN"
 "http://www.w3.org/Graphics/SVG/1.1/DTD/svg11.dtd">
<!-- Generated by graphviz version 2.38.0 (20140413.2041)
 -->
<!-- Title: models_diagram Pages: 1 -->
<svg width="535pt" height="109pt"
 viewBox="0.00 0.00 535.19 109.00" xmlns="http://www.w3.org/2000/svg" xmlns:xlink="http://www.w3.org/1999/xlink">
<g id="graph0" class="graph" transform="scale(1 1) rotate(0) translate(4 105)">
<title>models_diagram</title>
<polygon fill="none" stroke="none" points="-4,4 -4,-105 531.193,-105 531.193,4 -4,4"/>
<!-- _diagram_info -->
<g id="node1" class="node"><title>_diagram_info</title>
<text text-anchor="start" x="8" y="-72.6" font-family="Times,serif" font-size="13.00">Models diagram</text>
<text text-anchor="start" x="8" y="-59.6" font-family="Times,serif" font-size="13.00">Date: Oct 27 2016 &#45; 20:19</text>
<text text-anchor="start" x="8" y="-46.6" font-family="Times,serif" font-size="13.00">Migration version: 20161027231555</text>
<text text-anchor="start" x="8" y="-33.6" font-family="Times,serif" font-size="13.00">Generated by RailRoady 1.5.2</text>
<text text-anchor="start" x="8" y="-20.6" font-family="Times,serif" font-size="13.00">http://railroady.prestonlee.com</text>
</g>
<!-- Category -->
<g id="node2" class="node"><title>Category</title>
<path fill="none" stroke="black" d="M237.182,-7.5C237.182,-7.5 346.193,-7.5 346.193,-7.5 352.193,-7.5 358.193,-13.5 358.193,-19.5 358.193,-19.5 358.193,-81.5 358.193,-81.5 358.193,-87.5 352.193,-93.5 346.193,-93.5 346.193,-93.5 237.182,-93.5 237.182,-93.5 231.182,-93.5 225.182,-87.5 225.182,-81.5 225.182,-81.5 225.182,-19.5 225.182,-19.5 225.182,-13.5 231.182,-7.5 237.182,-7.5"/>
<text text-anchor="middle" x="291.688" y="-78.3" font-family="Times,serif" font-size="14.00">Category</text>
<polyline fill="none" stroke="black" points="225.182,-71.5 358.193,-71.5 "/>
<text text-anchor="start" x="233.182" y="-56.3" font-family="Times,serif" font-size="14.00">id :INTEGER</text>
<text text-anchor="start" x="233.182" y="-42.3" font-family="Times,serif" font-size="14.00">name_id :integer</text>
<text text-anchor="start" x="233.182" y="-28.3" font-family="Times,serif" font-size="14.00">created_at :datetime</text>
<text text-anchor="start" x="233.182" y="-14.3" font-family="Times,serif" font-size="14.00">updated_at :datetime</text>
</g>
<!-- Product -->
<g id="node3" class="node"><title>Product</title>
<path fill="none" stroke="black" d="M388.182,-0.5C388.182,-0.5 497.193,-0.5 497.193,-0.5 503.193,-0.5 509.193,-6.5 509.193,-12.5 509.193,-12.5 509.193,-88.5 509.193,-88.5 509.193,-94.5 503.193,-100.5 497.193,-100.5 497.193,-100.5 388.182,-100.5 388.182,-100.5 382.182,-100.5 376.182,-94.5 376.182,-88.5 376.182,-88.5 376.182,-12.5 376.182,-12.5 376.182,-6.5 382.182,-0.5 388.182,-0.5"/>
<text text-anchor="middle" x="442.688" y="-85.3" font-family="Times,serif" font-size="14.00">Product</text>
<polyline fill="none" stroke="black" points="376.182,-78.5 509.193,-78.5 "/>
<text text-anchor="start" x="384.182" y="-63.3" font-family="Times,serif" font-size="14.00">id :INTEGER</text>
<text text-anchor="start" x="384.182" y="-49.3" font-family="Times,serif" font-size="14.00">name :varchar</text>
<text text-anchor="start" x="384.182" y="-35.3" font-family="Times,serif" font-size="14.00">price :integer</text>
<text text-anchor="start" x="384.182" y="-21.3" font-family="Times,serif" font-size="14.00">created_at :datetime</text>
<text text-anchor="start" x="384.182" y="-7.3" font-family="Times,serif" font-size="14.00">updated_at :datetime</text>
</g>
<!-- Product&#45;&gt;Product -->
<g id="edge1" class="edge"><title>Product&#45;&gt;Product</title>
<path fill="none" stroke="#ae5fd2" d="M516.975,-65.0698C523.269,-61.9545 527.193,-57.0979 527.193,-50.5 527.193,-44.604 524.06,-40.0985 518.901,-36.9835"/>
<ellipse fill="none" stroke="#ae5fd2" cx="513.062" cy="-66.4426" rx="4.00001" ry="4.00001"/>
<polygon fill="#ae5fd2" stroke="#ae5fd2" points="518.604,-36.8676 510.923,-29.0409 513.946,-35.0504 509.287,-33.2332 509.287,-33.2332 509.287,-33.2332 513.946,-35.0504 507.652,-37.4254 518.604,-36.8676 518.604,-36.8676"/>
</g>
</g>
</svg>
